<svg width="140px" height="168px" viewBox="0 0 140 168" version="1.1" xmlns="http://www.w3.org/2000/svg" xmlns:xlink="http://www.w3.org/1999/xlink">
    <defs>
        <polygon id="path-1" points="0.000230741134 0.445752212 103.904909 0.445752212 103.904909 158.756221 0.000230741134 158.756221"></polygon>
        <polygon id="path-3" points="0.811247312 0.599517803 103.727806 0.599517803 103.727806 159.469027 0.811247312 159.469027"></polygon>
    </defs>
    <g id="Pump-Buy-Page" stroke="none" stroke-width="1" fill="none" fill-rule="evenodd">
        <g id="Gen-2-Modal" transform="translate(-122.000000, -256.000000)">
            <g id="Flange-and-Fitment" transform="translate(122.000000, 256.000000)">
                <g id="Group-3" transform="translate(0.000000, 0.058673)">
                    <mask id="mask-2" fill="white">
                        <use xlink:href="#path-1"></use>
                    </mask>
                    <g id="Clip-2"></g>
                    <path d="M98.6184086,112.404894 C98.2300215,112.738876 97.712172,112.984097 96.9685161,113.182681 L84.1427097,117.10923 C84.0267957,117.143832 83.9244301,117.217549 83.852172,117.316841 C83.8055054,117.380027 79.068086,123.812947 70.2691613,131.423832 C70.2661505,131.426841 70.2616344,131.42985 70.2586237,131.432858 L70.2571183,131.432858 C68.8977634,132.687549 66.9769032,132.902681 64.9867957,132.030115 C59.9663656,129.829142 54.1029247,120.674717 54.1029247,102.12215 C54.1029247,79.9033009 62.7994839,67.2992301 67.235828,65.7722389 C68.1510968,65.4593186 68.8285161,65.6037434 69.3072258,66.2130354 C69.3267957,66.2386106 69.3553978,66.2521504 69.3779785,66.2747168 C77.1351828,76.4566637 82.5138925,85.5975487 85.3575484,93.4386106 C85.4222796,93.6161327 85.5713118,93.7500265 85.7564731,93.7936549 L98.8427097,96.9529469 C100.582925,97.5682566 101.519269,99.1373717 101.996473,100.337903 C103.00357,102.966133 103.903785,108.028522 98.6184086,112.404894 M103.048731,99.9271947 C102.237333,97.8856903 100.914108,96.4880796 99.1633548,95.8727699 L86.3149677,92.7676372 C83.3990538,84.861885 77.9827097,75.6939204 70.2149677,65.5074602 C50.7579785,39.981885 19.6749677,12.4268407 0.866795699,0.532858407 C0.601849462,0.365867257 0.254107527,0.444097345 0.0870107527,0.708876106 C-0.0785806452,0.972150442 -0.000301075269,1.31967257 0.263139785,1.48666372 C18.5745376,13.0662212 48.5691613,39.5621504 68.0095914,64.5040088 C67.6467957,64.5130354 67.2689462,64.5671947 66.8685161,64.7056018 C61.1887312,66.6583451 52.9738925,81.1068407 52.9738925,102.12215 C52.9738925,121.219319 59.200129,130.725779 64.532172,133.063655 C65.4926022,133.484894 66.4424946,133.691 67.3472258,133.691 C67.4330323,133.691 67.5143226,133.672947 67.600129,133.669938 C53.6091613,145.090027 31.6953978,157.627903 2.92765591,157.627903 C2.61604301,157.627903 2.36313978,157.880646 2.36313978,158.192062 C2.36313978,158.503478 2.61604301,158.756221 2.92765591,158.756221 C33.9459355,158.756221 57.0715269,144.355867 71.0098065,132.275336 C71.0113118,132.273832 71.0143226,132.272327 71.015828,132.269319 C71.0173333,132.267814 71.0203441,132.26631 71.0218495,132.264805 C71.0218495,132.264805 71.0218495,132.263301 71.0218495,132.263301 C79.1614194,125.224097 83.8732473,119.16277 84.6500215,118.133743 L97.280129,114.265867 C98.1728172,114.028168 98.8306667,113.70923 99.3455054,113.268434 C105.166796,108.448257 104.16572,102.845779 103.048731,99.9271947" id="Fill-1" fill="#535359" mask="url(#mask-2)"></path>
                </g>
                <path d="M83.5955054,96.0441239 C83.3275484,95.8786372 82.9813118,95.962885 82.8187312,96.2291681 C81.6656129,98.1096991 80.3965806,101.466071 80.2972258,105.243681 C80.2294839,107.133239 80.4718495,108.906956 81.0152903,110.50315 C81.3690538,111.62846 81.8853978,112.690584 82.5477634,113.662442 C82.6576559,113.820407 82.8337849,113.907664 83.0144301,113.907664 C83.1243226,113.907664 83.2357204,113.876071 83.3320645,113.809876 C83.5894839,113.632354 83.6557204,113.283327 83.4795914,113.024566 C82.8789462,112.145982 82.4122796,111.18315 82.0886237,110.154124 C81.585828,108.675274 81.3630323,107.036956 81.4262581,105.279788 C81.5195914,101.71731 82.7043226,98.5745664 83.782172,96.8204071 C83.9432473,96.5541239 83.8604516,96.2066018 83.5955054,96.0441239" id="Fill-4" fill="#535359"></path>
                <g id="Group-8" transform="translate(36.129032, 8.085221)">
                    <mask id="mask-4" fill="white">
                        <use xlink:href="#path-3"></use>
                    </mask>
                    <g id="Clip-7"></g>
                    <path d="M88.357914,110.807354 L56.8925376,110.807354 C55.2772688,110.807354 53.6966237,111.374522 52.4396344,112.405053 C51.5288817,113.152752 50.4826452,114.03585 49.3114624,115.027265 C44.5303871,119.06815 37.3602796,125.115938 28.930172,130.551425 C26.9957634,119.350982 25.9826452,103.861425 25.9826452,84.4498319 C25.9826452,69.9802743 27.1914624,57.2814248 29.1153333,46.667708 C36.6211398,56.3050531 45.9770538,72.5001858 49.7404946,79.1828407 C50.5985591,80.7083274 52.158129,81.6500973 53.9194194,81.7042566 L60.1968387,81.8200973 C60.1983441,81.8200973 60.2013548,81.8216018 60.2028602,81.8216018 C60.205871,81.8216018 60.2073763,81.8200973 60.2103871,81.8200973 L88.6213548,82.3451416 C96.3288817,82.4865575 102.598774,88.8713363 102.598774,96.5754956 C102.598774,104.422575 96.209957,110.807354 88.357914,110.807354 L88.357914,110.807354 Z M29.1439355,131.762487 C37.8103871,126.220186 45.1611398,120.012929 50.0400645,115.887796 C51.2067312,114.902398 52.2484516,114.02231 53.1546882,113.279124 C54.209957,112.412575 55.5376989,111.935673 56.8925376,111.935673 L57.2914624,111.935673 C53.4949032,135.344522 46.4708172,151.638947 40.1392043,151.638947 C35.2497419,151.638947 31.5374839,144.781779 29.1439355,131.762487 L29.1439355,131.762487 Z M36.1484516,22.3110708 C41.1703871,27.5720442 41.2832903,37.6351416 41.2456559,62.5514248 C37.4114624,56.3592124 33.1467312,49.8916903 29.3953333,45.1918673 C31.1987742,35.7516018 33.5682366,28.0414248 36.1484516,22.3110708 L36.1484516,22.3110708 Z M53.9465161,80.5759381 C52.5916774,80.5353186 51.385871,79.8086814 50.7235054,78.6307168 C48.9366237,75.4563805 45.8852258,70.1337257 42.370172,64.3853186 C42.4168387,37.3101858 42.4183441,26.8499204 36.6542581,21.2203628 C39.9751183,14.2443451 43.5910323,10.4877965 46.753828,10.4877965 C48.5572688,10.4877965 50.1198495,11.1783274 51.5318925,12.6000088 C60.0116774,21.1255841 59.8114624,53.1201858 59.6654409,76.4839027 L59.6413548,80.6827522 L53.9465161,80.5759381 Z M48.7680215,149.022752 C48.7228602,149.066381 48.6807097,149.111513 48.6521075,149.170186 C48.5693118,149.331159 48.4850108,149.469566 48.4022151,149.627531 C45.7075914,153.994876 42.7570538,156.666735 39.6710323,156.666735 C28.8985591,156.666735 22.965871,131.105053 22.965871,84.6905398 C22.965871,45.9892124 32.3729677,15.657 42.309957,7.59177876 C42.3536129,7.57673451 42.3987742,7.56469912 42.4394194,7.53761947 C42.6170538,7.41876991 42.7570538,7.27133628 42.9030753,7.12992035 C44.4144731,6.03921239 45.9333978,5.46000885 47.4312473,5.46000885 C49.7510323,5.46000885 51.7396344,6.32655752 53.5114624,8.10779646 C57.8484516,12.4721327 60.1667312,21.7800088 61.3951183,32.9338142 L61.3951183,32.9413363 L61.3951183,32.9428407 C62.8749032,46.3863805 62.7680215,62.5108053 62.6761935,75.9332832 L62.6475914,80.7369115 L60.7703871,80.7023097 L60.7944731,76.4884159 C60.942,52.9291239 61.1437204,20.6637257 52.3327527,11.8026637 C50.7204946,10.1823982 48.8432903,9.35947788 46.753828,9.35947788 C39.8561935,9.35947788 32.4392043,23.0452301 28.2497419,45.2460265 C28.2467312,45.2655841 28.2407097,45.2821327 28.2392043,45.3016903 C26.1437204,56.4314248 24.8536129,69.6884159 24.8536129,84.4498319 C24.8536129,100.511071 25.5641505,118.150451 27.9757634,131.487177 C27.9742581,131.553372 27.9863011,131.618062 28.0103871,131.682752 C30.282,144.119832 34.0484516,152.767265 40.1392043,152.767265 C48.7890968,152.767265 55.378129,130.882398 58.4370538,111.935673 L60.2675914,111.935673 C57.9493118,125.905761 53.8336129,140.447531 48.7680215,149.022752 L48.7680215,149.022752 Z M39.5882366,158.335142 L28.5192043,158.335142 C27.1703871,158.335142 25.8697419,157.876292 24.8536129,157.044345 C3.59167742,139.63815 1.94027957,101.475407 1.94027957,90.1937257 C1.94027957,51.2953186 14.4123226,23.3476195 21.8473763,10.1508053 C24.030172,6.28142478 28.1518925,3.87584956 32.6078065,3.87584956 L40.0880215,3.87584956 C41.469957,3.87584956 42.4183441,4.28204425 42.6245806,4.96354867 C42.790172,5.50664602 42.4635054,6.16407965 41.8116774,6.60036283 C41.8056559,6.60337168 41.8041505,6.60938938 41.798129,6.61239823 C31.493828,14.8325752 21.8368387,44.6201858 21.8368387,84.6905398 C21.8368387,118.040628 24.9303871,157.795053 39.6710323,157.795053 C40.8723226,157.795053 42.0465161,157.446027 43.1936129,156.800628 C41.9426452,157.853726 40.7278065,158.401336 39.5882366,158.335142 L39.5882366,158.335142 Z M53.1004946,4.47009735 C54.9506022,5.85416814 56.4153333,8.7110708 57.5654409,12.1035487 C56.626086,10.1748761 55.5482366,8.55761947 54.3123226,7.31346018 C52.3463011,5.33514159 50.0310323,4.33169027 47.4312473,4.33169027 C46.2209247,4.33169027 44.9985591,4.67469912 43.7776989,5.31407965 C43.7837204,5.08540708 43.7716774,4.85523009 43.7054409,4.63558407 C43.533828,4.0669115 42.8353333,2.74753097 40.0880215,2.74753097 L36.6286667,2.74753097 C41.798129,1.07761947 48.8282366,1.27620354 53.1004946,4.47009735 L53.1004946,4.47009735 Z M88.6409247,81.216823 L63.7766237,80.7579735 L63.8052258,75.9423097 C63.8970538,62.5318673 64.0039355,46.4435487 62.5136129,32.9217788 C62.5151183,32.9022212 62.5226452,32.8841681 62.5211398,32.8616018 C62.4518925,31.8807168 60.7357634,8.77275221 53.7764086,3.5689469 C48.4383441,-0.42379646 39.1185591,-0.0747699115 33.6630753,2.74753097 L32.6078065,2.74753097 C27.7454409,2.74753097 23.245871,5.37275221 20.8643656,9.59868142 C13.3751183,22.8917788 0.811247312,51.0380619 0.811247312,90.1937257 C0.811247312,101.600274 2.49275269,140.196292 24.1385591,157.916912 C25.3549032,158.914345 26.9114624,159.46346 28.5192043,159.46346 L39.558129,159.461956 C39.6364086,159.466469 39.7146882,159.469478 39.7944731,159.469478 C42.9828602,159.469478 46.3865161,156.093549 49.6576989,149.68169 C49.6592043,149.675673 49.6592043,149.66815 49.6622151,149.662133 C54.8753333,140.96054 59.0226452,126.442841 61.4116774,111.935673 L88.357914,111.935673 C96.8331828,111.935673 103.727806,105.045407 103.727806,96.5754956 C103.727806,88.2605398 96.9611398,81.3702743 88.6409247,81.216823 L88.6409247,81.216823 Z" id="Fill-6" fill="#99D3CF" mask="url(#mask-4)"></path>
                </g>
            </g>
        </g>
    </g>
</svg>
